<svg id="Capa_1" data-name="Capa 1" xmlns="http://www.w3.org/2000/svg" viewBox="0 0 280.05 210.94"><defs><style>.cls-1{fill:#4daeb5;fill-rule:evenodd;}</style></defs><path class="cls-1" d="M351.53,282.21c1.09,4.4,4.66,5.19,5.59.31l1.47-6.76a.5.5,0,0,1,.92,0l2.6,5.18c.33.45.66.49.86-.21l.5-3.64c.64-2.16,1.46-2.53,2.49-1l1.91,3.5a2,2,0,0,0,3.84-1.1c-2.09-17.18-13.24-34-28.81-31.37-1.76.3-2.13-5.34-.21-5.72,17.32-.48,31.52,14.16,31.52,40.83,0,5.27-4.83,6.7-8.14,3.62-2,3-4.07,3.46-6.12,1.36-2.6,5.19-7.61,6.87-9.85,1a134.86,134.86,0,0,0-7-17c-.62-.88-2.58-.77-2.58.11l1.49,38c-.42,6.21-3.06,8.31-8.71,7.63-1.58-.24-1.38-5.1,1.41-5.53,3.36.16,5.27-.38,5.12-4.19l-5.09-120.47-11.14,2.08c-1.11.18-1,1.61-1.11,2.48l.77,41.89c0,.8-2.4.92-2.41-.17l-1.71-41.55q-.06-1.75-1.65-1.53l-22.94,4.34c-.89.21-.78,1-.76,1.45.1,8.22,1.26,47.29,2.31,55.69-.05.31-1.66.21-1.77-.33-1.93-18.81-2.52-33.12-3.73-53.43,0-3.11-.69-2.85-2.91-2.44l-73,13.94c-1.94.74-3.16.38-3.8-.84l-6-12.73c-1.57-3.34,2-6.24,3.62-2.8l4.1,8.62a1.61,1.61,0,0,0,1.4.88L290.62,188l0-6.8c-.08-.75-.23-1.33-1.64-1.19l-72.83,12.43c-4.15.51-4.59-6.5-1.73-7.23l76.21-13.11.07-17.32c.48-2.84,1.95-5,4.74-5.67l22.22-.79a3.7,3.7,0,0,1,3.35,3.45l.53,15.34c0,.64.3.94,1,.86l17.95-2.22a3,3,0,0,1,3.27,2.38l-.13,13.68a3.31,3.31,0,0,1-2.64,3.8l-2.89.53,2.39,76.35c4.31,4.3,8.38,11.12,11,19.68Zm-29.3-107.78,17.36-2.91a.38.38,0,0,1,.39.39l.1,6.6a.43.43,0,0,1-.39.39l-17.19,3.2c-.2,0-.38-.18-.39-.39l-.28-6.89a.41.41,0,0,1,.4-.39Zm-27.78,4.7,23.41-4c.24,0,.44.21.45.45l.3,6.81a.48.48,0,0,1-.45.45l-23.81,4.47a.42.42,0,0,1-.46-.44l.11-7.34a.49.49,0,0,1,.45-.44Zm.73-22.69,21.48-1.06a.84.84,0,0,1,.84.84l.48,11.62a.87.87,0,0,1-.84.84L295,171.53a.81.81,0,0,1-.84-.84l.18-13.41a.87.87,0,0,1,.85-.84Z" transform="translate(-116.07 -148.36)"/><path class="cls-1" d="M244.33,228.14c-1.84-2.85-1.71-8.54-1.26-14.68.12-2.62,3.09-2.51,3.09-.44v7.57c.05,2.13,2,1.87,2.8-.56l3.11-8.48c.57-1.69,2-2,2.55.16.67,2.85-.05,7.34-4.11,15.83C249.46,229.74,246.11,229.88,244.33,228.14Z" transform="translate(-116.07 -148.36)"/><path class="cls-1" d="M262.8,219c-.09,2.29,3.19,1.94,3.91-.28A37.26,37.26,0,0,0,269.4,210c.19-1.69,2.42-2,2.79-.37a27.33,27.33,0,0,1-3.85,15.45c-2.31,4.06-8.78,2.44-9-2.08a61.54,61.54,0,0,1,.3-11c.45-3.08,3.3-1.89,3.51,0Z" transform="translate(-116.07 -148.36)"/><path class="cls-1" d="M232.21,223c0-3.75,2-3.75,2.21-.37,7.39,29,36.34,16.46,46.25-8.75.87-2.55,3-2,2.44,2C270.65,257.93,233.45,252.39,232.21,223Z" transform="translate(-116.07 -148.36)"/><path class="cls-1" d="M325.75,333l10.7,4.78c3.41,1.53,3.44,7,1.78,10-13.45,10.84-19.7,7.75-23.33-.63a76.83,76.83,0,0,1-3.74-22.57c-.14-2.31,2.16-2.46,2.65-.43a77.27,77.27,0,0,0,4.52,20.46c2.47,7.08,11.88,2.05,15.59-.66-7-2.3-9.33-4-9.84-5a101.64,101.64,0,0,1-4.66-18.62c-25.22,4.27-45.81,7-67.14,5.82-1.8-.3-3.2-3-3.5-4.26C236.15,286.7,226.91,250.35,219,213.56c.4-3.24,2.7-2.63,3.3-.64,8.4,36.28,17.82,72.12,30.53,106.55,23.65.8,48.4-2,73.88-7.05l.52-1.16a1.21,1.21,0,0,1,2.26-.25,9,9,0,0,1-1.58,6.91l-4.23,1.79-.5.61c-.67,2.13,1.53,11.75,2.58,12.67Z" transform="translate(-116.07 -148.36)"/><path class="cls-1" d="M180.85,269.84a1.23,1.23,0,0,0-1.63,1.63,29.5,29.5,0,0,0,17.69,13.17c10.6,1.3,19-.37,30-4.4,1.54-1,4.17,3.09.73,5.57-9.17,5.84-20,6.61-31.89,4.38-9.36-2.7-17-7.49-19.92-17.8-.38-3-2.37-10.2,7.5-8.86l1.08-3.59c.5-1.69.92-1.49,2.51-1.51l2.86.6c-2.52-7.81,6.44-10.16,8-6,1.37,3.58,5,9.26,9.28,9.52,6.66.41,12.26.35,18.33-1,2.66.36,1.82,6.34.83,6.23a45,45,0,0,1-21.26.12c-3.9-.85-7.15-6.31-8.92-9.57a2.24,2.24,0,0,0-4,1.54,22.19,22.19,0,0,1,0,6.51c-.14.95-.51.78-1.18.6l-2.51-1.07a14.3,14.3,0,0,1-.39,5c-.39,1.39-1.11,1.64-2.29,1.25A14.26,14.26,0,0,1,180.85,269.84Z" transform="translate(-116.07 -148.36)"/><path class="cls-1" d="M269.78,340.63l-.09-11.57c.35-2.29,2.68-2.15,2.95-.25l.88,11.18c.38,4.77-4,8.14-7.68,10.73,4.41,1.56,9.22,1.06,12.48-5.33a50.65,50.65,0,0,0,2.26-15.57c-.19-1.32,2.4-2.8,2.46,0a112.74,112.74,0,0,1-.55,17.93c-1.34,13.63-18,13.3-27.08,8.79-2.13-1.06-2.63-7.19,1-9,6.9-2.65,11.89-2.26,13.41-6.86Z" transform="translate(-116.07 -148.36)"/><path class="cls-1" d="M252.72,250.51c-8.24,2.74-12.3,7.33-14.64,12.69-1.63,3.73-.39,7.22,1.25,3.3,2.66-6.35,11-9.92,16-10.74,10.34-1.24,27,15.26,36.95,11,8.73-3.77,6.57-15.14,14.39-19.31,6.41-1.27,10.84,2.21,16.08.71,6.16-3,4.86-8.68,9.1-12.9,2-3.28-.85-5.57-3.48-2.89-1.66,1.27-2.74,7.91-4.5,9.12-3.37,2.3-4-1.35-17.63-.38-6.57.74-8.72,16.18-14.06,19.48-9.38,3.6-24.26-11.29-35-10.78a13.88,13.88,0,0,0-4.46.72Z" transform="translate(-116.07 -148.36)"/><path class="cls-1" d="M273.5,272.28c5.19,1.77,7.57,9.2,5.32,16.61s-8.28,12-13.47,10.21-7.58-9.2-5.33-16.61,8.29-12,13.48-10.21ZM272,279.47c-.09-1.56,2.65-.75,2.88-.5,2.17,1.23.54,11.14-2.65,11.55l-.23-11Z" transform="translate(-116.07 -148.36)"/><path class="cls-1" d="M255.52,262.47c4.47,1.37,6.52,7.12,4.58,12.84s-7.13,9.27-11.61,7.9-6.53-7.11-4.59-12.84,7.14-9.26,11.62-7.9Zm-1,5.79c2.58,1.52,3.41,2.43,2,5.69-1.36,1.72-2.1,1.58-2.22-.39Z" transform="translate(-116.07 -148.36)"/><path class="cls-1" d="M317.48,287.42c3.09,4.54.52,11.91-5.73,16.47s-13.83,4.59-16.91.06-.52-11.91,5.73-16.47,13.83-4.59,16.91-.06Zm-7.06,6.07c-.27-1.78.08-2.9,2.42-2.27,1.26.68,2,1.5,1.54,2.61a18.34,18.34,0,0,1-3.76,4.58c-1,.34-1.5,0-1.39-1.18.42-1.32.82-2.6,1.19-3.74Z" transform="translate(-116.07 -148.36)"/><path class="cls-1" d="M324.48,259.28c3.92,2.24,5.19,8.11,2.84,13.12s-7.44,7.26-11.35,5-5.19-8.11-2.84-13.12S320.57,257.05,324.48,259.28Zm-1.79,4.23c2.16,2.32,2.72,3.5.32,6.38-1.9,1.33-2.6,1-2.12-1.07Z" transform="translate(-116.07 -148.36)"/><path class="cls-1" d="M161,175c14-.34,23.92,3,30.69,8,5.44,4.73,8.5,10.55,8.37,17.86,0,5.73-1.32,12.09-3.83,19-2.53,10.35.25,16.18,5.49,19.82-16.85,2.09-22.44-25.28-35.36-23.42-10.57,1.53-13.47,3.49-23,7.77-16,8.19-31.79-4.85-26.05-19.45,6.3-18.38,21.3-27.78,43.7-29.53Zm-26.86,41.61a2.54,2.54,0,0,1-1.41-.16,3.19,3.19,0,0,1-1.23-.93,5.08,5.08,0,0,1-.88-1.69,1,1,0,0,1-.07-.28,1.17,1.17,0,0,1,.12-.71.53.53,0,0,1,.45-.32.58.58,0,0,1,.45.17,1.15,1.15,0,0,1,.31.49,2.51,2.51,0,0,0,1,1.32,1.7,1.7,0,0,0,1.24.29,2.2,2.2,0,0,0,1.59-1,4.69,4.69,0,0,0,.65-2.13,10.06,10.06,0,0,0-.17-2.69c-.19-1-.4-2-.59-3.08a11.59,11.59,0,0,1-.68,1.7,4.28,4.28,0,0,1-1,1.29,2.21,2.21,0,0,1-1.25.61,2.59,2.59,0,0,1-1.86-.49,4.41,4.41,0,0,1-1.32-1.62,9.77,9.77,0,0,1-.84-2.45c-.25-1.17-.48-2.34-.65-3.52a34.82,34.82,0,0,1-.33-3.53.89.89,0,0,1,.23-.72.82.82,0,0,1,.56-.28.8.8,0,0,1,.56.23.92.92,0,0,1,.27.7,35.09,35.09,0,0,0,.33,3.53c.16,1.17.4,2.34.63,3.51a9.35,9.35,0,0,0,.39,1.36,2.9,2.9,0,0,0,.63,1,1.15,1.15,0,0,0,1,.34c.75-.11,1.39-.81,1.84-2.13a12.59,12.59,0,0,0,.67-3.59c-.23-1.59-.41-3.18-.49-4.78a1.17,1.17,0,0,1,.77-1.16.64.64,0,0,1,.56.06.7.7,0,0,1,.25.61,49.54,49.54,0,0,0,.68,5.94c.34,2,.77,3.94,1.13,5.92a11.63,11.63,0,0,1,.18,2.89,8.17,8.17,0,0,1-.55,2.49,4.19,4.19,0,0,1-3.18,2.76ZM147.7,201.4a.71.71,0,0,1-.57,0,.62.62,0,0,1-.34-.52c-.11-.61-.21-1.21-.31-1.81a18.3,18.3,0,0,1-.72,1.86,13.23,13.23,0,0,1-.94,1.75,6.81,6.81,0,0,1-1.2,1.42,2.54,2.54,0,0,1-1.7.86,1.53,1.53,0,0,1-1.18-.89,6.72,6.72,0,0,1-.73-2.17c-.2-1.14-.4-2.27-.53-3.42s-.23-2.28-.27-3.42a1.38,1.38,0,0,1,.23-.82,1.48,1.48,0,0,1,.53-.55.63.63,0,0,1,.53-.1c.17,0,.23.23.24.52,0,1.12.12,2.23.25,3.34s.32,2.22.51,3.33a7,7,0,0,0,.33,1.21,1.14,1.14,0,0,0,.55.69c.23.1.54,0,.92-.35a7,7,0,0,0,1.79-3.22,17.19,17.19,0,0,0,.79-3.73c-.17-1.45-.31-2.91-.36-4.37a1.2,1.2,0,0,1,.24-.77,1.51,1.51,0,0,1,.55-.5.64.64,0,0,1,.54,0c.16.08.23.26.24.54a48.76,48.76,0,0,0,.43,5c.23,1.65.53,3.31.8,5a1,1,0,0,1-.13.73A1.22,1.22,0,0,1,147.7,201.4Zm16.58-.71a1.16,1.16,0,0,1-.6-.33,1.19,1.19,0,0,1-.34-.71c-.15-1.19-.29-2.39-.43-3.58s-.26-2.38-.35-3.58a7.21,7.21,0,0,0-.21-1.38,1.13,1.13,0,0,0-.93-.93c-.66-.09-1.3.44-1.89,1.56a8.64,8.64,0,0,0-.92,2.86c.19,1.51.4,3,.59,4.52a.69.69,0,0,1-.17.64.65.65,0,0,1-.53.19,1,1,0,0,1-.59-.26,1.14,1.14,0,0,1-.34-.69l-.48-3.47c-.16-1.15-.29-2.31-.4-3.47a8.6,8.6,0,0,0-.24-1.55c-.16-.55-.47-.84-.92-.84-.66,0-1.31.62-1.87,1.84a9.83,9.83,0,0,0-.87,3.1l.66,4.49a.77.77,0,0,1-.15.68.73.73,0,0,1-.51.29.9.9,0,0,1-.59-.19.83.83,0,0,1-.35-.6c-.26-1.68-.55-3.36-.77-5.05s-.34-3.37-.4-5.07a1,1,0,0,1,.25-.72.88.88,0,0,1,.56-.31.72.72,0,0,1,.56.16.82.82,0,0,1,.27.64c0,.58,0,1.16.07,1.74a7.89,7.89,0,0,1,.78-1.4,4,4,0,0,1,1.06-1,2.26,2.26,0,0,1,1.28-.41,2.2,2.2,0,0,1,1.31.42,2.73,2.73,0,0,1,.85,1,6.69,6.69,0,0,1,.5,1.51,6.22,6.22,0,0,1,.81-1.32,3.85,3.85,0,0,1,1.09-.9,2.09,2.09,0,0,1,1.33-.24,2.47,2.47,0,0,1,1.61.81,4.18,4.18,0,0,1,.86,1.68,10.28,10.28,0,0,1,.37,2.14c.1,1.16.2,2.32.34,3.48s.27,2.32.4,3.48a.62.62,0,0,1-.17.61.64.64,0,0,1-.53.13Zm16.55,4.43a1.13,1.13,0,0,1-.57-.38A1.21,1.21,0,0,1,180,204l-.27-3.74c-.08-1.25-.16-2.49-.21-3.74a7.42,7.42,0,0,0-.19-1.45,1.28,1.28,0,0,0-.89-1.05c-.65-.15-1.31.31-1.93,1.39a8.76,8.76,0,0,0-1,2.77l.39,4.7a.66.66,0,0,1-.2.62.59.59,0,0,1-.54.07,1.25,1.25,0,0,1-.57-.41,1.34,1.34,0,0,1-.33-.76c-.11-1.21-.21-2.41-.32-3.61s-.19-2.4-.26-3.61a8.44,8.44,0,0,0-.21-1.62,1.34,1.34,0,0,0-.91-1.08c-.66-.18-1.32.26-1.93,1.32a8.16,8.16,0,0,0-1,2.76c.15,1.54.31,3.08.46,4.62a.64.64,0,0,1-.19.61.6.6,0,0,1-.54.08,1.24,1.24,0,0,1-.59-.39,1.29,1.29,0,0,1-.33-.74c-.18-1.73-.38-3.46-.54-5.19s-.25-3.47-.29-5.21a.69.69,0,0,1,.27-.62.72.72,0,0,1,.57-.12,1.09,1.09,0,0,1,.57.38,1,1,0,0,1,.26.73c0,.6,0,1.2.06,1.79a6.13,6.13,0,0,1,.83-1.12,3.1,3.1,0,0,1,1.06-.73,2.08,2.08,0,0,1,1.29,0,3.09,3.09,0,0,1,1.33.73,4,4,0,0,1,.85,1.24,8.22,8.22,0,0,1,.47,1.65A5.58,5.58,0,0,1,176,193a3.37,3.37,0,0,1,1.08-.79,2,2,0,0,1,1.33-.1,2.78,2.78,0,0,1,1.59.95,4.4,4.4,0,0,1,.83,1.77,10.7,10.7,0,0,1,.33,2.24c.06,1.21.12,2.43.2,3.64s.17,2.42.25,3.63a.71.71,0,0,1-.21.64.63.63,0,0,1-.53.13Zm7.85,8.39a3.29,3.29,0,0,1-1.43-.46,4.1,4.1,0,0,1-1.21-1.18,5.29,5.29,0,0,1-.8-1.83,1.43,1.43,0,0,1,0-.29,1,1,0,0,1,.18-.67.51.51,0,0,1,.49-.22.65.65,0,0,1,.42.25,1.19,1.19,0,0,1,.27.55,2.86,2.86,0,0,0,.86,1.48,2.18,2.18,0,0,0,1.24.55,1.88,1.88,0,0,0,1.67-.58,4,4,0,0,0,.83-1.89,12.19,12.19,0,0,0,.19-2.65c0-1-.09-2.08-.12-3.12a9.12,9.12,0,0,1-.93,1.44,4.21,4.21,0,0,1-1.15,1,2.2,2.2,0,0,1-1.34.31,2.8,2.8,0,0,1-1.78-.8,4.44,4.44,0,0,1-1.06-1.8,9.2,9.2,0,0,1-.46-2.5c-.06-1.17-.13-2.34-.17-3.51s-.07-2.34-.09-3.51a.82.82,0,0,1,.26-.67.72.72,0,0,1,.57-.19.87.87,0,0,1,.55.3,1,1,0,0,1,.26.73c0,1.17,0,2.35.08,3.52s.11,2.35.16,3.53a8.54,8.54,0,0,0,.18,1.37,2.8,2.8,0,0,0,.46,1.11,1.26,1.26,0,0,0,.94.5c.78,0,1.5-.5,2.16-1.66a10.51,10.51,0,0,0,1.2-3.28c0-1.61-.08-3.22-.1-4.83a1,1,0,0,1,.25-.71.83.83,0,0,1,.56-.24.79.79,0,0,1,.57.26,1,1,0,0,1,.26.71q0,3,.12,6c.06,2,.14,4,.21,6a13.19,13.19,0,0,1-.21,2.84,7.52,7.52,0,0,1-.74,2.19,3.25,3.25,0,0,1-3.32,1.87Zm2-27.3c-.54-1.25-.4-1.8.53-1A20.55,20.55,0,0,1,197.64,198c.29,2.55-1,3-1.36.54A24.45,24.45,0,0,0,190.65,186.21ZM131.82,189c.9-.92,1-2.17-.54-1.31a31.74,31.74,0,0,0-11.93,19.62c-.38,2.34,1.07,1.65,1.38.22C122.53,199.39,126.35,193.34,131.82,189Z" transform="translate(-116.07 -148.36)"/><path class="cls-1" d="M345.07,202.08c-.11-13,8.73-21.68,13.73-23.92,10.76-5.67,20.86-4.24,30.51,1.92a21.51,21.51,0,0,1,6.81,15.49c.14,11.62-5,18.27-16,22.36-.32,0-.91.87-1.66,2.32-1.95,6.57-2.19,9.07-5.06,10-1.59-.94-2.34-4.12-2.08-9.95-15,.95-25.75-3-26.29-18.26Zm3.08,0c-.09-11.41,7.68-19.07,12.07-21,9.46-5,19.15-3.93,27.64,1.49a18.9,18.9,0,0,1,6,13.62c.11,10-5.66,16.75-15,20.4-1.19.46-1.66.34-2.39,1.77-.84,3.72-.78,7.47-2.28,7.79-.88-.89.23-3.63-.32-7.83-.14-1.17,0-1-1.15-.89-12.81.63-24.12-2.19-24.58-15.31Z" transform="translate(-116.07 -148.36)"/><path class="cls-1" d="M362.31,190.11c1.45-2,4.38,0,7.84,3.36,2.09-6.61,4.54-7.56,7.11-6.62,6.15,2.33.14,17.26-6.3,22.14C370.13,206.08,358.64,195.06,362.31,190.11Z" transform="translate(-116.07 -148.36)"/><path class="cls-1" d="M284.57,299.47c-3-1.76-7.51-.19-10.14,3.51s-2.33,8.14.65,9.9,7.52.19,10.14-3.51,2.33-8.14-.65-9.9Z" transform="translate(-116.07 -148.36)"/></svg>