<svg id="Capa_1" data-name="Capa 1" xmlns="http://www.w3.org/2000/svg" viewBox="0 0 497.03 15.87"><defs><style>.cls-1{fill:none;stroke:aqua;stroke-miterlimit:10; opacity:.6; stroke-width:3px}</style></defs><path class="cls-1" d="M255.49,239.5c16.56,0,16.59,14,33.15,13.93s16.54-14,33.11-14.06,16.59,14,33.16,13.93,16.53-14,33.1-14.07,16.59,14,33.16,13.94,16.54-14,33.1-14.07,16.6,14,33.17,13.93S504,239,520.54,239s16.59,14,33.16,13.93,16.53-14,33.1-14.07,16.6,14,33.16,13.94,16.54-14,33.11-14.07,16.6,14,33.17,13.93,16.54-14,33.11-14.06,16.59,14,33.16,13.93" transform="translate(-255.48 -238.07)"/></svg>