<?xml version="1.0" encoding="UTF-8"?>
<!DOCTYPE svg PUBLIC "-//W3C//DTD SVG 1.1//EN" "http://www.w3.org/Graphics/SVG/1.1/DTD/svg11.dtd">
<!-- Creator: CorelDRAW 2021 (64-Bit) -->
<svg xmlns="http://www.w3.org/2000/svg" xml:space="preserve" width="210mm" height="210mm" version="1.1" style="shape-rendering:geometricPrecision; text-rendering:geometricPrecision; image-rendering:optimizeQuality; fill-rule:evenodd; clip-rule:evenodd"
viewBox="0 0 21000 29700"
 xmlns:xlink="http://www.w3.org/1999/xlink"
 xmlns:xodm="http://www.corel.com/coreldraw/odm/2003">
 <defs>
  <style type="text/css">
   <![CDATA[
    .fil2 {fill:#4daeb5} 
    .fil0 {fill:#4daeb5}
    .fil1 {fill:#4daeb5;fill-rule:nonzero}
   ]]>
  </style>
 </defs>
 <g id="Capa_x0020_1">
  <metadata id="CorelCorpID_0Corel-Layer"/>
  <g id="_2993898853584">
   <path class="fil0" d="M13547.12 12451.28c54.65,219.52 232.35,258.98 278.98,15.39l73.46 -336.9c8.41,-19.95 35.42,-18.34 45.79,1.81l129.8 258.47c16.18,22.65 32.71,24.57 42.73,-10.27l24.82 -181.87c31.97,-107.84 73.28,-126.18 124.24,-50.74l95.75 174.67c52.29,95.45 205.94,65.23 191.39,-54.81 -104.07,-857.46 -660.76,-1697.85 -1437.53,-1565.43 -87.88,14.98 -106,-266.4 -10.49,-285.13 864.01,-24.13 1572.77,706.19 1572.77,2036.95 0,262.73 -241.22,334.15 -406.29,180.56 -101.33,148.06 -203.1,172.93 -305.17,67.85 -129.8,259.14 -379.92,342.68 -491.72,50.5 -97.13,-286.6 -211.11,-569.79 -350.31,-848.03 -31.36,-44.03 -129.03,-38.73 -129.03,5.42l74.48 1896.91c-21,309.87 -152.55,414.46 -434.77,380.78 -78.81,-12.31 -68.9,-254.73 70.73,-276.16 167.51,8.16 262.5,-18.65 255.44,-208.81l-254.34 -6010.6 -555.47 103.83c-55.63,8.92 -52.26,80.06 -55.45,123.66l38.1 2089.64c-1.43,40.05 -119.48,46.12 -120.2,-8.33l-85.38 -2073.16c-1.66,-58.32 -29.12,-83.42 -81.92,-76.03l-1144.7 216.4c-44.62,10.3 -38.73,50.89 -37.74,72.57 4.56,410.13 62.84,2359.43 114.82,2778.09 -2.2,15.75 -82.43,10.86 -87.89,-16.18 -96.46,-938.39 -125.79,-1652.29 -186.26,-2665.93 -0.2,-155.25 -34.24,-142.02 -145.31,-121.64l-3642.21 695.64c-96.85,36.64 -157.54,18.8 -189.52,-41.99l-299.29 -635.35c-78.33,-166.29 99.06,-311.25 180.75,-139.61l204.64 429.9c13.81,24.06 33.48,42.28 69.79,43.96l3823.78 -714.5 1.17 -338.86c-4.03,-37.4 -11.11,-66.68 -81.61,-59.39l-3633.5 620.11c-207.41,25.25 -229.19,-324.42 -86.81,-360.7l3802.61 -654.41 3.67 -863.83c23.77,-141.62 96.85,-250.3 236.5,-283.27l1108.58 -39.06c89.59,12.79 149.59,64.41 167.15,171.92l26.42 765.45c-0.76,31.75 14.58,46.71 48.01,42.88l895.96 -110.71c86.38,-1.37 141.31,37.53 163.13,118.74l-6.43 682.59c9.02,99.27 -41.48,167.03 -132.09,189.3l-144.19 26.83 119.35 3809.15c215.31,214.34 418.21,554.58 550.81,981.73zm-1462.01 -5377.39l866.3 -145.01c10.58,-1.76 19.34,8.97 19.5,19.49l5.12 329.03c0.15,10.5 -9.22,17.61 -19.49,19.49l-857.52 159.74c-10.29,1.91 -19.08,-8.77 -19.49,-19.49l-13.91 -343.76c-0.41,-10.72 8.92,-17.73 19.49,-19.49zm-1385.75 234.44l1167.89 -197.39c12.13,-2.04 21.81,10.37 22.35,22.34l15.08 339.99c0.54,11.95 -10.6,20.15 -22.34,22.34l-1188.25 223.11c-11.75,2.19 -22.73,-9.55 -22.55,-21.86l5.48 -366.18c0.17,-12.31 10.21,-20.31 22.34,-22.35zm36.29 -1132.04l1071.57 -52.76c23.14,-1.15 41.1,19.05 42.07,42.06l24.15 579.58c0.97,23.01 -19.26,39.16 -42.06,42.07l-1105.01 142.05c-22.8,2.9 -42.4,-18.91 -42.07,-42.07l9.28 -668.86c0.33,-23.16 18.93,-40.92 42.07,-42.07z"/>
   <path class="fil0" d="M8198.75 9753.53c-92.01,-141.8 -85.31,-425.73 -62.89,-732.43 5.97,-130.34 154.01,-124.96 153.98,-21.66l0 377.74c2.52,106.13 100.19,93.39 139.71,-27.97l155.4 -423.23c28.11,-84.16 101.87,-99.27 126.97,8.08 33.54,141.95 -2.26,366.1 -204.99,789.66 -52.33,109.92 -219.64,116.85 -308.18,29.81z"/>
   <path class="fil0" d="M9120.37 9296.44c-4.56,114 158.8,96.34 195.03,-14.2 76.97,-173.82 101.08,-275.97 134.15,-432.17 9.66,-84.16 120.91,-100.8 139.1,-18.22 16.64,275.6 -54.76,530.25 -191.82,770.68 -115.52,202.67 -438.51,121.98 -450.67,-103.88 -9.83,-181.85 -8.02,-364.68 15.11,-549.28 22.02,-153.67 164.25,-94.35 175.1,1.86l-16 345.21z"/>
   <path class="fil0" d="M7594.08 9494.67c0,-187.05 98.58,-187.05 110.1,-18.22 368.87,1445.12 1813.23,821.01 2307.75,-436.5 43.37,-127.55 149.24,-98.56 121.69,97.67 -621.92,2102.28 -2477.86,1825.99 -2539.54,357.05z"/>
   <path class="fil0" d="M12261.18 14984.79l533.58 238.85c170.19,76.27 171.56,350.59 89.03,499.77 -671.07,541.03 -983.21,386.8 -1164.35,-31.64 -120.88,-361.7 -176.3,-738.52 -186.44,-1125.95 -7.11,-115.38 107.61,-122.61 132.22,-21.43 19.36,304.62 93.49,644.22 225.35,1020.69 123.58,353.31 592.95,102.56 778.17,-32.82 -349.14,-114.66 -465.83,-199.74 -490.91,-248.97 -115.83,-320.26 -183.97,-627.32 -232.48,-929.06 -1258.4,213.32 -2285.84,347.96 -3349.85,290.58 -89.81,-15.14 -159.99,-151.48 -175,-212.46 -629.74,-1757.12 -1090.94,-3570.53 -1486.29,-5406.03 20,-161.78 134.69,-131.28 164.78,-32.08 418.93,1810.2 889.06,3598.51 1523.24,5316.42 1179.94,39.49 2414.72,-97.57 3685.96,-351.91l25.89 -57.82c23.26,-59.01 96.47,-60.03 112.8,-12.46 23.34,125.32 -6.73,239.39 -78.53,344.65l-210.93 89.08 -25.25 30.58c-33.58,106.12 76.47,586.38 129.01,632.01z"/>
   <path class="fil0" d="M5031.34 11834.25c-49.43,-23.26 -107.24,31.06 -81.18,81.13 203.84,317.61 465.86,536.08 882.74,657.16 528.49,64.85 946.93,-18.55 1497.28,-219.38 76.77,-48.62 207.94,154.23 36.13,277.68 -457.15,291.47 -998.93,329.97 -1590.79,218.95 -467.03,-134.66 -846.18,-373.89 -993.83,-888.49 -19.29,-149.22 -118.51,-508.72 373.92,-441.99l53.89 -178.92c25.23,-84.24 45.94,-74.35 125.39,-75.57l142.69 30.27c-125.85,-389.8 321.41,-507.11 400.83,-297.59 68.01,178.87 251.39,461.88 462.57,474.88 332.42,20.59 611.93,17.43 914.67,-51.83 132.6,18.04 91.06,316.47 41.71,311.07 -350.51,86.96 -690.52,87.9 -1060.85,6.11 -194.67,-42.75 -356.85,-315.14 -444.96,-477.6 -59.55,-85.56 -208.64,-30.81 -198.24,76.87 15.52,106.15 16.41,214.24 -0.2,324.6 -6.91,47.49 -25.31,39.21 -58.71,29.81l-125.03 -53.1c6.42,84.06 2.6,178.84 -19.75,250.9 -19.47,69.13 -55.19,81.54 -114.13,62.53 -96.87,-31.26 -176.17,-61.89 -244.15,-117.49z"/>
   <path class="fil0" d="M9468.61 15366.23l-4.79 -577.23c17.69,-114.43 133.77,-107.25 147.3,-12.51l44.08 557.61c18.78,237.96 -199,406.44 -383.27,535.67 219.95,77.44 459.89,52.87 622.71,-265.88 89.44,-308.52 107.76,-480.56 112.45,-777 -9.15,-65.82 119.83,-139.68 123.09,-1.66 18.07,301.66 2.02,599.07 -27.46,894.79 -66.87,680.13 -896.53,663.31 -1350.97,438.57 -106.51,-52.79 -131.66,-358.91 47.49,-450.34 344.63,-132.19 593.49,-112.31 669.37,-342.02z"/>
   <path class="fil0" d="M8617.24 10869.95c-410.92,136.75 -613.85,365.44 -730.55,633.18 -80.92,185.73 -19.29,359.84 62.51,164.4 132.57,-316.84 547.21,-495.05 800.54,-535.64 515.62,-62.15 1348.77,761.5 1843.32,547.72 435.56,-188.27 327.57,-755.47 718.08,-963.41 319.45,-63.45 540.54,110.2 802.15,35.21 307.19,-149.97 242.55,-432.83 454.14,-643.43 101.89,-163.45 -42.76,-277.88 -173.55,-144.09 -82.79,63.19 -136.73,394.62 -224.91,455.01 -167.74,114.86 -196.97,-67.43 -879.25,-19.06 -327.73,37.04 -435.08,807.29 -701.66,971.74 -468.09,179.94 -1210.23,-563.01 -1748.1,-537.58 -90.53,4.28 -135.15,6.82 -222.72,35.95z"/>
   <path class="fil0" d="M9653.96 11956.05c259.03,88.06 378,459 265.7,828.51 -112.31,369.52 -413.34,597.67 -672.34,509.61 -259.04,-88.06 -378.01,-458.98 -265.71,-828.52 112.31,-369.51 413.34,-597.66 672.35,-509.6zm-77.16 358.73c-4.64,-77.84 131.94,-37.55 143.81,-24.76 108.22,61.33 26.91,555.52 -132.24,576.08l-11.57 -551.32z"/>
   <path class="fil0" d="M8756.77 11466.62c223.23,68.08 325.74,354.94 228.96,640.68 -96.77,285.76 -356.21,462.19 -579.44,394.08 -223.24,-68.09 -325.77,-354.92 -228.97,-640.68 96.77,-285.76 356.22,-462.16 579.45,-394.08zm-51.91 288.69c129.09,75.73 170.14,121.37 100.86,284.21 -67.78,85.67 -104.4,78.68 -110.44,-19.47l9.58 -264.74z"/>
   <path class="fil0" d="M11848.42 12711.54c153.98,226.16 25.89,594.05 -286.06,821.69 -311.99,227.66 -689.71,228.86 -843.66,2.72 -153.98,-226.16 -25.91,-594.04 286.07,-821.69 311.98,-227.66 689.68,-228.86 843.65,-2.72zm-352.14 302.63c-13.68,-88.85 3.88,-144.83 120.4,-113.06 62.91,33.69 97.46,74.76 76.95,130.16 -49.66,83.6 -109.85,161.26 -187.76,228.68 -50.51,16.97 -74.69,-1.09 -69.01,-58.93 20.67,-66.05 40.54,-129.7 59.42,-186.85z"/>
   <path class="fil0" d="M12197.81 11307.57c195.36,111.53 258.6,404.55 141.24,654.52 -117.37,249.96 -370.9,362.15 -566.28,250.65 -195.36,-111.53 -258.6,-404.56 -141.24,-654.52 117.39,-249.96 370.92,-362.15 566.28,-250.65zm-89.33 210.85c107.67,115.89 135.4,174.54 15.82,318.33 -94.69,66.14 -129.59,47.95 -105.92,-53.21l90.1 -265.12z"/>
   <path class="fil0" d="M4040.26 7103.29c700.37,-16.68 1193.47,149.78 1531.29,397.88 271.03,235.67 423.86,526.3 417.6,890.97 1.96,285.73 -66.1,603.45 -191.06,947.05 -126.5,516.48 12.23,807.32 273.61,988.81 -840.75,104.27 -1119.62,-1261.2 -1764.15,-1168.34 -527.47,75.98 -672,174.18 -1147.84,387.58 -797.76,408.6 -1586.51,-241.97 -1300.06,-970.57 314.61,-916.76 1062.79,-1385.82 2180.61,-1473.38zm-1340.14 2076.25c-23.79,3.76 -47.29,1.42 -70.53,-8.13 -23.11,-9.49 -43.44,-25.08 -61.36,-46.46 -18.34,-21.89 -32.53,-49.81 -44.08,-84.21 -1.53,-4.54 -2.69,-9.3 -3.29,-13.93 -1.67,-13.66 0.39,-25.72 5.89,-35.58 5.59,-9.99 12.72,-15.29 22.53,-15.82 7.82,-0.46 15.46,2.19 22.52,8.26 6.96,5.96 11.6,14.47 15.34,24.84 10.94,30.12 27.04,52.13 48.01,65.61 21.12,13.63 41.18,17.93 61.71,14.68 33.94,-5.43 61.2,-20.82 79.34,-49.23 18.12,-28.38 29.03,-63.93 32.65,-105.98 3.57,-41.61 0.48,-86.6 -8.49,-134.45 -9.6,-51.15 -19.93,-102.23 -29.71,-153.34 -9.15,29.76 -20.15,57.51 -33.63,84.52 -13.28,26.57 -29.03,47.66 -47.34,64.46 -18.25,16.71 -39.07,27.88 -62.69,30.47 -35.16,3.9 -66.5,-5.35 -92.75,-24.38 -25.96,-18.86 -48.2,-46.1 -65.94,-80.88 -17.83,-35.03 -31.93,-75.6 -41.79,-122.25 -12.33,-58.45 -23.85,-116.93 -32.33,-175.53 -8.48,-58.71 -13.81,-117.47 -16.64,-176.27 -0.74,-15.38 3.11,-27.62 11.42,-36.01 8.64,-8.74 17.99,-13.23 28.07,-13.66 9.82,-0.43 19.6,3.52 28.08,11.19 8.82,7.98 12.75,19.61 13.41,34.98 2.57,58.68 8,117.39 16.33,175.97 8.31,58.61 19.85,116.86 31.67,175.28 4.79,23.75 11.21,46.68 19.27,67.65 8.25,21.55 18.59,38.32 31.64,51.7 12.74,13.05 29.48,19.62 49.64,16.84 37.64,-5.2 69.28,-40.59 92.06,-106.02 20.31,-58.27 30.4,-118.31 33.3,-179.16 -11.41,-79.41 -20.36,-158.97 -24.49,-238.69 -0.76,-15.09 3.9,-27.93 12.11,-38.2 8.1,-10.19 17.1,-16.48 26.45,-19.44 10.24,-3.26 19.59,-2.47 27.74,2.75 8.16,5.2 11.91,15.42 12.74,30.47 5.35,99.2 16.49,198.11 33.61,296.52 17.15,98.48 38.68,196.45 56.49,295.04 9.28,51.39 12.08,99.91 8.82,144.6 -3.23,44.74 -11.7,86.81 -27.42,123.86 -33.28,78.4 -86.89,126.64 -158.36,137.93zm677.5 -759.96c-9.76,4.41 -19.27,4.57 -28.41,0.87 -9.12,-3.67 -14.96,-12.21 -17.3,-25.99 -5.15,-30.19 -10.45,-60.27 -15.34,-90.3 -10.14,31.21 -21.89,62.89 -35.59,93.2 -14.02,30.93 -29.62,60.18 -47.35,87.28 -18.19,27.79 -37.94,51.62 -59.42,70.86 -32.7,29.25 -60.8,44.15 -84.9,42.67 -23.55,-1.42 -43.44,-17.4 -59.09,-44.56 -15.7,-27.26 -28.33,-63.42 -36.23,-108.19 -10.04,-56.72 -19.9,-113.31 -26.78,-170.31 -6.83,-56.69 -11.09,-113.82 -13.41,-170.9 -0.58,-14.77 3.67,-28.76 11.45,-41.07 7.87,-12.52 17.09,-21.61 26.44,-27.17 9.89,-5.9 18.66,-7.51 26.76,-4.94 8.2,2.63 11.31,11.37 11.77,25.71 1.8,55.78 6.04,111.33 12.71,166.84 6.68,55.4 15.96,110.84 25.48,166.08 3.85,22.43 9.72,42.89 16.34,60.55 6.75,18.04 15.88,29.51 27.41,34.43 11.62,4.94 26.97,-1.51 46.05,-17.72 35.08,-29.81 64.28,-82.99 89.13,-160.73 20.51,-64.25 34.29,-126.33 39.51,-185.87 -8.81,-72.42 -15.49,-145.04 -17.96,-217.94 -0.45,-13.91 3.62,-27.06 11.75,-38.6 8.21,-11.67 17.35,-19.85 27.45,-24.69 9.8,-4.71 19.21,-5.15 27.08,-1.6 8.13,3.69 11.56,12.65 12.07,26.57 3.07,82.92 9.64,165.95 21.23,248.43 11.57,82.35 26.48,165.01 40.16,247.14 2.32,13.96 0.28,25.76 -6.53,36.43 -6.9,10.81 -14.67,19.11 -24.48,23.52zm827.01 -35.29c-10.75,-1.88 -20.54,-7.44 -30.04,-16.69 -9.42,-9.17 -14.88,-21.05 -16.63,-35.42 -7.38,-59.5 -14.56,-118.91 -21.56,-178.31 -7.01,-59.34 -12.74,-119.04 -17.64,-178.72 -2.27,-27.87 -4.76,-50.73 -10.11,-68.69 -8.36,-27.9 -23.49,-43.78 -46.38,-46.76 -32.94,-4.28 -64.9,21.99 -94.68,78.13 -23.42,44.18 -38.84,92.34 -45.72,142.58 9.49,75.07 19.81,150.15 29.38,225.35 1.84,14.37 -1.09,24.84 -8.45,32.08 -7.29,7.14 -16.03,10.32 -26.45,9.58 -10.14,-0.71 -20.31,-5.2 -29.41,-13.35 -9.17,-8.23 -14.95,-19.62 -16.96,-33.99 -8.09,-57.64 -16.01,-115.53 -23.85,-173.22 -7.83,-57.74 -14.78,-115.52 -19.9,-173.5 -3.04,-34.37 -6.97,-60.1 -12.09,-77.1 -8.25,-27.25 -23.51,-42.09 -45.71,-41.81 -32.97,0.43 -65.58,31.06 -93.71,91.89 -23.78,51.41 -37.56,103.83 -43.09,154.63 11.08,74.66 22.02,149.32 32.97,224.05 2.09,14.25 -0.07,25.36 -7.49,33.84 -7.29,8.33 -15.36,13.28 -25.81,14.22 -9.78,0.92 -19.64,-2.55 -29.05,-9.15 -9.22,-6.45 -15.46,-15.8 -17.63,-30.04 -12.84,-83.91 -27.29,-167.79 -38.22,-251.77 -10.93,-84.03 -17.15,-168.43 -20.23,-252.95 -0.51,-14.21 3.97,-26.67 12.4,-36.16 8.21,-9.22 17.97,-14.24 28.09,-15.53 10.42,-1.33 19.56,1.67 28.08,8.28 8.43,6.6 12.74,17.14 13.06,31.51 0.64,29.03 1.94,57.92 3.6,86.97 11.08,-24.97 23.85,-48.67 39.16,-69.97 15.36,-21.38 33.59,-37.58 52.9,-50.4 19.19,-12.72 40.16,-20.25 63.68,-20.31 25.45,-0.07 47.67,7.96 65.61,21.05 17.65,12.9 31.59,30.52 42.12,51.83 10.7,21.69 18.93,46.75 25.14,75.06 11.42,-24.1 24.44,-45.91 40.47,-65.49 15.62,-19.02 34.35,-34.09 54.22,-44.84 20.26,-11.01 42.17,-15.41 66.61,-12.23 33.99,4.48 61,18.53 80.31,40.67 19.54,22.42 33.35,50.42 42.78,83.5 9.51,33.4 15.65,68.85 18.6,106.71 4.54,57.94 9.96,116.06 16.67,173.8 6.67,57.84 13.45,115.76 20.23,173.52 1.68,14.55 -1.33,24.54 -8.82,30.48 -7.82,6.24 -16.63,8.41 -26.45,6.67zm826.05 220.72c-10.8,-2.48 -19.74,-9.02 -28.74,-18.88 -8.97,-9.87 -14.22,-22.38 -15.34,-37.31 -4.74,-62.3 -9.14,-124.32 -13.38,-186.59 -4.23,-62.15 -7.89,-124.42 -10.77,-186.72 -1.33,-29.03 -4.31,-53.16 -9.15,-72.17 -7.55,-29.45 -22.53,-47 -44.72,-52.25 -32.34,-7.65 -65.13,15.28 -96.32,69.4 -24.3,42.15 -40.82,88.27 -50.28,137.93 6.5,78.13 13.25,156.4 19.58,234.77 1.17,14.68 -2.04,24.93 -9.79,30.5 -7.56,5.44 -16.66,6.86 -27.11,3.78 -10.11,-3.01 -19.75,-10.3 -28.71,-20.62 -9.33,-10.72 -14.6,-23.21 -16,-37.89 -5.76,-60.1 -10.96,-120.08 -16.01,-179.91 -5.04,-59.93 -9.6,-120.1 -13.06,-180.05 -2.07,-35.69 -5.44,-62.8 -10.46,-81.3 -8.02,-29.69 -23.16,-47.75 -45.38,-53.72 -32.91,-8.84 -66.07,12.89 -96.64,65.92 -25.28,43.82 -40.82,90.18 -48.64,137.65 7.18,76.79 15.18,153.75 22.85,230.57 1.48,14.62 -1.88,24.81 -9.47,30.34 -7.75,5.63 -16.64,6.94 -27.1,4.06 -10.11,-2.75 -19.63,-9.11 -29.07,-19.29 -9.17,-9.99 -15.13,-22.38 -16.64,-37.03 -8.94,-86.25 -19.11,-172.58 -26.78,-259.06 -7.66,-86.29 -12.46,-173.06 -14.7,-259.89 -0.35,-14.63 4.97,-24.77 13.41,-30.78 8.51,-6.04 17.96,-8.31 28.38,-6.09 10.8,2.26 20.13,8.84 28.75,18.73 8.68,9.98 12.86,22.24 13.06,36.87 0.44,29.78 1.96,59.54 2.6,89.3 12.08,-20.89 25.82,-39.21 41.48,-55.91 15.65,-16.68 33.86,-28.68 53.21,-36.43 19.49,-7.77 40.87,-8.82 64.34,-2.62 25.8,6.85 48,19.18 65.94,36.3 17.63,16.82 31.9,37.51 42.45,62.15 10.32,24.16 18.29,51.83 23.82,82.18 11.45,-22.23 24.93,-42.17 41.16,-59.83 16.07,-17.48 34.31,-30.65 54.19,-39.47 19.96,-8.9 41.76,-10.91 65.95,-5.22 33.93,7.94 60.21,23.52 79.34,47.46 19.37,24.26 32.84,53.57 41.78,88.57 9,35.12 14.53,72.01 16.34,111.66 2.76,60.54 6.06,121.11 10.12,181.34 4.07,60.55 8.23,120.96 12.4,181.35 1.05,15.08 -2.44,25.66 -10.44,31.95 -7.67,6.04 -17.02,8.41 -26.45,6.25zm391.48 418.86c-23.82,-2.06 -47.83,-9.17 -71.16,-23.21 -23.01,-13.84 -43.07,-33.73 -60.75,-58.81 -17.56,-24.87 -30.86,-55.14 -39.52,-91.16 -1.12,-4.74 -1.79,-9.76 -1.94,-14.37 -0.49,-13.66 2.75,-24.9 9.12,-33.41 6.35,-8.46 14.35,-12.2 24.49,-10.88 7.49,0.96 14.8,4.84 21.23,12.18 6.29,7.15 10.57,16.61 13.39,27.44 8.26,31.57 22.43,56.54 42.79,73.77 20.46,17.32 40.79,25.86 61.69,27.59 35.24,2.91 62.88,-6.09 83.25,-29.05 20.1,-22.65 33.62,-54.48 41.48,-94.23 7.79,-39.49 11.18,-83.51 9.47,-132.13 -1.86,-51.83 -4.25,-103.66 -5.88,-155.66 -14.05,26.14 -29.03,50.14 -46.35,72.03 -17.28,21.81 -36.6,38.32 -57.48,50.53 -20.9,12.18 -43.12,17.84 -66.95,15.82 -35.92,-3.06 -65.35,-17.08 -88.46,-39.93 -23.24,-23.01 -41.13,-53.13 -53.23,-89.87 -12.06,-36.72 -20.07,-78.11 -22.53,-124.73 -3.08,-58.52 -6.69,-116.72 -8.81,-175.12 -2.11,-58.47 -3.49,-117 -4.23,-175.38 -0.21,-15.24 4.18,-26.37 12.72,-33.53 8.41,-7.06 17.96,-10.04 28.41,-9.17 10.09,0.86 19.21,6.03 27.75,14.82 8.75,9.05 12.53,21.23 12.74,36.44 0.75,58.5 1.8,117.36 3.92,175.84 2.11,58.66 5.37,117.19 8.15,175.69 1.12,23.79 4.28,46.89 8.81,68.66 4.6,22.08 12.16,40.32 23.2,55.35 10.82,14.73 26.75,23.16 47.01,24.66 38.52,2.84 74.42,-24.51 107.76,-82.6 29.01,-50.63 48.3,-105.44 59.72,-163.51 -2.27,-80.29 -4.08,-160.73 -4.89,-241.02 -0.16,-15.39 4.1,-27.32 12.4,-35.29 8.67,-8.28 18,-12.33 27.75,-12.17 10.45,0.12 19.93,4.63 28.41,13.04 8.49,8.43 12.9,20.05 13.08,35.44 1.09,100.32 2.92,200.69 5.86,300.85 2.95,100.32 7.26,200.37 10.44,300.7 1.69,52.38 -2.09,99.74 -10.11,141.56 -7.98,41.66 -20.08,78.35 -37.23,109.49 -37.05,67.29 -92.72,99.65 -165.52,93.33zm98.53 -1362.05c-27.39,-62.42 -20.41,-89.77 26.15,-47.72 191.63,188.96 294.19,393.18 322.21,636.19 14.71,127.5 -47.99,148.14 -67.61,27.37 -37.74,-232.31 -128.5,-439.03 -280.75,-615.84zm-2935.48 136.6c45.12,-46.09 48.33,-108.29 -27.07,-65.36 -315.37,252.9 -521.98,574.05 -595.29,979.04 -18.76,116.54 53.45,82.4 69.33,10.77 89.47,-403.53 280.06,-705.57 553.03,-924.45z"/>
   <path class="fil0" d="M13224.95 8453.6c-5.3,-647.25 435.53,-1081.77 684.81,-1193.6 536.97,-282.86 1040.74,-211.34 1522.52,95.88 213.76,212.56 336.24,466.06 339.76,772.9 6.67,579.9 -249.18,911.68 -796.42,1115.32 -16.08,-1.38 -45.51,43.85 -82.58,115.96 -97.49,327.65 -109.72,452.58 -252.61,501.2 -79.24,-47.37 -116.7,-205.63 -104.06,-496.56 -749.86,47.21 -1284.49,-147.07 -1311.42,-911.1zm153.57 2.19c-4.64,-569.21 383.02,-951.31 602.22,-1049.66 472.23,-248.74 955.46,-195.87 1379.15,74.3 187.97,186.92 295.73,409.9 298.78,679.69 5.71,499.89 -282.52,835.95 -747.23,1017.71 -59.3,23.23 -82.84,17.02 -119.58,88.51 -41.64,185.55 -38.94,372.86 -113.54,388.58 -43.96,-44.41 11.24,-181.17 -15.77,-390.74 -7.42,-58.15 -1,-47.19 -57.79,-44.44 -638.95,31.65 -1203.16,-109.23 -1226.24,-763.95z"/>
   <path class="fil0" d="M14085.24 7856.24c72.01,-100.88 218.39,-1.96 391.15,167.68 104.19,-329.89 226.41,-377.39 354.63,-330.37 306.73,116.49 6.75,861.31 -314.37,1104.57 -41.38,-145.21 -614.46,-694.6 -431.41,-941.88z"/>
   <path class="fil0" d="M10206.5 13312.54c-148.58,-87.98 -375.02,-9.48 -505.81,175.36 -130.82,184.86 -116.4,406 32.15,493.98 148.58,87.99 375.02,9.48 505.81,-175.35 130.82,-184.86 116.4,-406 -32.15,-493.99z"/>
   <path class="fil1" d="M2970.77 17595.53c66.89,-66.89 138.08,-105.72 215.75,-105.72 146.69,0 252.4,86.3 355.96,189.86l-237.3 677.42c-86.3,-53.95 -198.49,-97.08 -323.6,-97.08 -211.44,0 -450.9,107.85 -509.15,360.26 -8.61,36.67 -10.78,71.19 -10.78,103.55 0,248.11 224.36,401.27 485.4,401.27 196.33,0 379.68,-81.97 502.65,-250.24 112.19,105.69 252.44,191.99 455.21,191.99 293.4,0 552.28,-183.38 681.72,-571.7 4.31,-12.95 6.48,-25.89 6.48,-36.67 0,-69.02 -64.72,-114.33 -131.61,-114.33 -53.92,0 -110.02,30.2 -135.91,99.22 -94.92,245.94 -232.99,317.13 -388.32,317.13 -148.86,0 -235.13,-101.39 -340.85,-207.1l220.05 -647.2c69.02,51.77 153.16,103.55 254.57,97.08 215.72,0 409.88,-207.11 409.88,-450.88 0,-239.46 -176.89,-386.18 -360.27,-386.18 -161.8,0 -323.6,56.11 -446.57,224.38 -112.19,-105.72 -252.41,-196.32 -457.37,-196.32 -185.52,0 -327.91,53.94 -457.35,207.1 -23.72,28.05 -34.52,60.41 -34.52,90.61 0,77.66 66.88,153.16 142.38,153.16 34.53,0 71.19,-15.08 103.55,-49.61zm1119.69 -112.19c56.08,0 92.74,30.22 92.74,97.08 0,66.89 -51.77,105.72 -112.16,105.72 -62.58,0 -105.72,-43.14 -131.61,-77.67 38.84,-86.3 94.92,-125.13 151.03,-125.13zm-1152.05 1367.76c-86.27,0 -135.91,-60.39 -135.91,-131.58 0,-15.11 0,-30.22 4.33,-45.31 23.73,-79.83 99.22,-142.38 198.47,-142.38 77.66,0 142.38,36.67 204.94,94.91 -69.03,153.17 -172.58,224.36 -271.83,224.36zm2666.49 -513.43c-60.38,0 -127.27,36.67 -153.16,118.64 -84.13,265.35 -220.05,353.82 -317.13,353.82 -36.69,0 -58.24,-19.42 -58.24,-53.95 0,-17.25 4.3,-38.83 10.77,-62.55l241.63 -698.98c8.64,-25.91 12.95,-49.63 12.95,-71.21 0,-94.92 -77.67,-144.53 -157.5,-144.53 -60.41,0 -122.96,28.03 -157.49,81.97 -45.3,-28.05 -129.44,-60.41 -239.46,-60.41 -142.39,0 -297.72,77.66 -355.96,243.79l-202.78 580.32c-12.94,38.83 -21.58,77.66 -21.58,116.49 0,179.08 144.55,325.77 334.38,325.77 101.41,0 204.96,-45.3 284.77,-116.5 69.05,99.25 222.21,116.5 286.93,116.5 179.05,0 418.54,-90.61 556.59,-440.1 30.22,-84.13 53.95,-138.07 53.95,-176.91 0,-73.33 -56.09,-112.16 -118.67,-112.16zm-711.92 -21.58l-103.55 321.43c-45.3,140.25 -127.27,172.61 -172.58,172.61 -47.47,0 -71.19,-30.22 -71.19,-79.83 0,-28.06 6.47,-53.95 12.95,-73.36l138.05 -433.63c41,-131.58 101.41,-148.85 135.91,-148.85 41,0 86.3,41 86.3,114.35 0,32.36 -8.64,73.34 -25.89,127.28zm3356.83 112.19c-92.77,252.41 -209.27,364.57 -310.65,364.57 -43.14,0 -71.2,-28.03 -71.2,-71.19 0,-19.42 6.48,-43.14 15.11,-69.03l347.33 -949.24c17.25,-45.31 28.05,-94.92 28.05,-155.33 0,-202.77 -148.86,-353.79 -368.9,-353.79 -129.44,0 -284.77,51.77 -386.18,157.49 -66.86,-101.41 -131.58,-157.49 -278.3,-157.49 -138.08,0 -228.69,86.3 -237.3,97.08 -17.27,-53.95 -77.66,-97.08 -159.66,-97.08 -62.55,0 -148.85,25.88 -179.05,110.02l-554.42 1553.28c-8.64,21.58 -8.64,41 -8.64,60.41 0,94.92 75.5,148.86 159.63,148.86 73.36,0 153.19,-43.14 187.69,-138.08l416.37 -1160.65c51.78,-144.53 131.61,-220.05 228.69,-220.05 112.16,0 142.38,86.3 81.97,254.57l-377.54 1037.69c-10.78,30.19 -17.25,58.25 -17.25,81.97 0,92.77 75.5,144.55 157.49,144.55 75.5,0 155.33,-43.14 189.83,-140.22l403.43 -1130.46c51.78,-146.69 138.08,-245.93 243.8,-245.93 84.13,0 140.21,73.35 101.38,179.05l-302.02 834.91c-19.41,56.08 -30.22,116.5 -30.22,166.11 0,213.57 170.44,336.54 379.71,336.54 237.3,0 463.82,-155.33 597.57,-576.01 4.33,-17.25 8.63,-32.36 8.63,-47.47 0,-75.5 -64.72,-118.63 -129.44,-118.63 -56.08,0 -110.02,32.36 -135.91,103.55zm1277.15 -90.61c-60.39,0 -127.27,36.67 -153.16,118.64 -84.14,265.35 -220.05,353.82 -317.13,353.82 -36.69,0 -58.25,-19.42 -58.25,-53.95 0,-17.25 4.31,-38.83 10.78,-62.55l241.63 -698.98c8.64,-25.91 12.95,-49.63 12.95,-71.21 0,-94.92 -77.67,-144.53 -157.5,-144.53 -60.41,0 -122.97,28.03 -157.49,81.97 -45.31,-28.05 -129.44,-60.41 -239.47,-60.41 -142.38,0 -297.71,77.66 -355.96,243.79l-202.77 580.32c-12.94,38.83 -21.58,77.66 -21.58,116.49 0,179.08 144.55,325.77 334.38,325.77 101.41,0 204.96,-45.3 284.77,-116.5 69.05,99.25 222.21,116.5 286.93,116.5 179.05,0 418.54,-90.61 556.59,-440.1 30.22,-84.13 53.94,-138.07 53.94,-176.91 0,-73.33 -56.08,-112.16 -118.66,-112.16zm-711.92 -21.58l-103.55 321.43c-45.3,140.25 -127.27,172.61 -172.58,172.61 -47.47,0 -71.19,-30.22 -71.19,-79.83 0,-28.06 6.47,-53.95 12.94,-73.36l138.06 -433.63c40.99,-131.58 101.41,-148.85 135.91,-148.85 41,0 86.3,41 86.3,114.35 0,32.36 -8.64,73.34 -25.89,127.28zm2403.28 28.05c-58.25,0 -120.8,32.36 -142.38,101.39 -94.92,258.88 -213.58,364.6 -314.97,364.6 -43.16,0 -64.72,-25.89 -64.72,-58.25 0,-10.81 0,-21.58 4.31,-30.22l183.38 -502.65c12.95,-41 21.56,-84.14 21.56,-120.8 0,-183.39 -161.8,-297.74 -358.1,-297.74 -77.67,0 -189.86,19.41 -289.1,99.24 -45.31,-51.77 -116.5,-99.24 -241.63,-99.24 -88.44,0 -140.22,25.89 -179.05,49.63 -23.72,-32.36 -71.19,-49.63 -118.66,-49.63 -66.86,0 -135.92,32.36 -161.8,94.94l-345.16 994.52c-6.47,19.42 -8.64,36.69 -8.64,51.78 0,79.83 69.03,125.13 144.55,125.13 73.33,0 146.69,-43.14 176.89,-129.44l256.74 -737.81c45.3,-92.77 114.33,-144.55 179.05,-144.55 43.13,0 73.35,23.75 73.35,62.58 0,10.78 -2.16,25.89 -8.63,40.97l-252.41 701.15c-10.78,28.05 -17.25,56.08 -17.25,79.83 0,81.97 64.72,127.27 138.05,127.27 71.19,0 148.86,-43.14 181.22,-135.91l248.1 -701.14c38.83,-107.86 120.83,-174.75 192.02,-174.75 38.83,0 69.02,25.89 69.02,66.89 0,12.94 -2.16,28.05 -8.63,47.47l-163.94 446.57c-17.28,49.61 -25.89,99.22 -25.89,144.52 0,196.33 161.8,306.35 351.63,306.35 213.57,0 450.9,-138.08 599.75,-569.54 4.31,-15.11 8.61,-30.19 8.61,-45.3 0,-69.03 -62.55,-107.86 -127.27,-107.86zm2875.73 75.5c-101.41,273.99 -330.07,377.54 -502.67,377.54 -170.41,0 -338.69,-101.41 -338.69,-243.79 0,-32.36 4.31,-69.03 17.25,-105.7l271.83 -757.25c51.77,-142.38 140.22,-163.94 191.99,-163.94 49.64,0 84.14,30.2 84.14,94.92 0,30.19 -8.61,69.02 -25.89,112.19 -6.47,15.08 -8.61,30.19 -8.61,45.3 0,75.5 73.33,138.05 157.47,138.05 75.52,0 159.66,-51.77 198.49,-194.16 15.11,-56.08 21.58,-107.85 21.58,-153.16 0,-237.3 -187.71,-375.37 -433.65,-375.37 -157.47,0 -401.26,64.72 -515.59,388.32l-269.66 770.16c-23.75,66.89 -36.69,140.25 -36.69,204.97 0,282.6 258.88,509.12 634.25,509.12 299.88,0 673.12,-153.16 806.86,-576.01 4.31,-17.25 6.47,-32.36 6.47,-45.3 0,-75.5 -66.88,-118.66 -133.74,-118.66 -56.11,0 -110.03,28.05 -125.14,92.77zm1149.85 21.58c-94.91,258.88 -217.88,368.91 -314.96,368.91 -41,0 -66.88,-23.75 -66.88,-56.11 0,-8.61 2.16,-19.42 6.47,-28.03l176.91 -502.68c15.08,-40.97 19.41,-79.8 19.41,-116.49 0,-172.58 -135.91,-306.35 -310.65,-306.35 -51.78,0 -92.78,8.64 -138.08,28.05l135.91 -396.96c10.78,-34.5 21.58,-66.86 21.58,-94.91 0,-90.61 -71.19,-142.38 -142.38,-142.38 -84.14,0 -135.91,49.61 -176.91,163.96l-517.76 1466.98c-10.78,30.22 -15.11,58.25 -15.11,84.14 0,97.08 71.19,157.49 144.55,157.49 62.55,0 127.27,-38.83 159.63,-129.44l261.05 -737.81c45.3,-81.97 118.66,-144.55 185.52,-144.55 43.17,0 73.36,32.36 73.36,71.19 0,12.95 -2.17,25.89 -8.64,38.84l-157.47 450.9c-17.27,51.77 -25.88,99.22 -25.88,142.38 0,202.77 172.57,308.49 355.96,308.49 204.93,0 440.09,-127.27 595.42,-576.01 4.31,-15.11 6.47,-28.05 6.47,-41 0,-66.86 -64.72,-110.02 -133.74,-110.02 -53.95,0 -112.19,30.22 -133.78,101.41zm1018.3 17.25c-94.94,250.24 -321.46,351.66 -504.84,351.66 -157.47,0 -256.72,-75.53 -256.72,-174.75 0,-19.41 2.17,-38.83 10.78,-60.41l17.28 -41c62.55,38.83 140.22,64.72 226.52,64.72 196.3,0 368.9,-122.97 427.15,-317.13 10.78,-40.97 17.25,-81.97 17.25,-118.63 0,-204.97 -161.8,-362.46 -405.57,-362.46 -192.02,0 -379.71,112.19 -455.21,327.93l-127.27 368.9c-17.28,51.78 -28.05,103.56 -28.05,153.17 0,256.74 241.63,416.37 556.59,416.37 299.88,0 640.73,-146.69 783.11,-558.76 6.47,-17.25 8.64,-32.36 8.64,-45.3 0,-66.86 -60.42,-103.55 -125.14,-103.55 -60.38,0 -125.1,32.36 -144.52,99.24zm-474.62 -403.43c60.39,0 99.22,49.64 99.22,112.19 0,17.25 -2.14,34.53 -8.61,51.78 -21.59,71.19 -86.31,97.08 -151.03,97.08 -40.99,0 -81.97,-8.64 -112.19,-25.89l45.31 -129.44c23.75,-66.89 77.66,-105.72 127.3,-105.72zm701.11 660.15l453.04 -1311.65c8.64,-25.89 12.95,-51.78 12.95,-73.36 0,-81.97 -77.67,-135.91 -142.39,-135.91 -81.97,0 -135.91,45.3 -170.41,142.38l-448.73 1281.46c-17.25,49.63 -25.89,94.94 -25.89,140.24 0,198.47 163.97,308.49 353.79,308.49 204.97,0 461.68,-127.27 612.7,-576.01 4.31,-15.11 6.48,-30.19 6.48,-43.14 0,-69.05 -60.42,-118.66 -127.3,-118.66 -53.92,0 -112.17,32.36 -142.39,112.19 -97.08,258.88 -222.19,368.91 -323.6,368.91 -43.14,0 -66.86,-25.89 -66.86,-58.25 0,-8.64 4.31,-23.75 8.61,-36.69zm886.67 -1113.19c97.08,0 176.91,-79.83 176.91,-179.05 0,-97.08 -79.83,-174.74 -176.91,-174.74 -97.08,0 -176.89,77.66 -176.89,174.74 0,99.22 79.81,179.05 176.89,179.05zm-291.24 1100.24l237.32 -677.39c8.62,-28.06 19.42,-58.25 19.42,-79.83 0,-94.92 -71.19,-144.55 -144.55,-144.55 -66.89,0 -138.08,47.47 -172.58,148.85 -69.05,202.8 -159.66,459.54 -228.69,660.17 -12.94,43.14 -30.19,101.39 -30.19,138.06 0,202.79 168.27,319.29 366.74,319.29 211.41,0 444.4,-129.44 595.42,-576.01 4.31,-12.94 6.47,-25.89 6.47,-38.83 0,-66.89 -64.72,-107.86 -129.44,-107.86 -58.24,0 -116.49,30.2 -142.38,97.08 -101.39,280.44 -215.74,368.91 -302.02,368.91 -49.63,0 -81.99,-32.36 -81.99,-73.36 0,-10.78 2.16,-21.58 6.47,-34.53zm1076.52 -243.77c-86.3,237.3 -222.22,351.66 -347.33,351.66 -77.66,0 -125.13,-47.47 -125.13,-105.72 0,-15.11 4.31,-32.36 8.64,-47.47l211.41 -601.9 140.22 0c110.02,0 168.27,-77.66 168.27,-148.85 0,-56.09 -36.67,-105.72 -118.64,-105.72l-97.08 0 144.53 -420.68c4.33,-15.09 6.47,-28.03 6.47,-40.97 0,-79.83 -56.08,-144.55 -151,-144.55 -71.19,0 -131.6,49.61 -157.49,125.13l-172.58 481.07 -90.61 0c-116.49,0 -166.13,73.36 -166.13,142.38 0,60.42 36.69,112.19 94.94,112.19l71.19 0 -181.21 519.93 0 -2.17c-17.28,51.78 -25.89,99.25 -25.89,144.55 0,220.05 196.3,349.49 418.51,349.49 276.13,0 506.98,-204.94 629.95,-558.76 4.31,-15.08 8.62,-30.19 8.62,-43.14 0,-64.72 -62.56,-105.71 -129.44,-105.71 -53.92,0 -114.33,30.22 -140.22,99.24zm1287.93 -120.8c-60.39,0 -127.28,36.67 -153.17,118.64 -84.13,265.35 -220.04,353.82 -317.12,353.82 -36.7,0 -58.25,-19.42 -58.25,-53.95 0,-17.25 4.3,-38.83 10.78,-62.55l241.63 -698.98c8.63,-25.91 12.94,-49.63 12.94,-71.21 0,-94.92 -77.66,-144.53 -157.49,-144.53 -60.42,0 -122.97,28.03 -157.5,81.97 -45.3,-28.05 -129.44,-60.41 -239.46,-60.41 -142.39,0 -297.71,77.66 -355.96,243.79l-202.78 580.32c-12.94,38.83 -21.58,77.66 -21.58,116.49 0,179.08 144.55,325.77 334.38,325.77 101.41,0 204.96,-45.3 284.77,-116.5 69.05,99.25 222.21,116.5 286.93,116.5 179.05,0 418.54,-90.61 556.6,-440.1 30.21,-84.13 53.94,-138.07 53.94,-176.91 0,-73.33 -56.09,-112.16 -118.66,-112.16zm-711.92 -21.58l-103.56 321.43c-45.3,140.25 -127.27,172.61 -172.58,172.61 -47.46,0 -71.19,-30.22 -71.19,-79.83 0,-28.06 6.47,-53.95 12.95,-73.36l138.05 -433.63c41,-131.58 101.41,-148.85 135.91,-148.85 41,0 86.3,41 86.3,114.35 0,32.36 -8.63,73.34 -25.88,127.28zm-7114.93 -619.17c49.64,0 112.19,-10.78 159.66,-51.78l373.21 -325.74c64.72,-56.11 -17.25,-144.55 -135.91,-144.55 -62.55,0 -127.27,19.42 -170.44,69.03l-282.6 332.23c-69.02,79.83 -23.72,120.81 56.08,120.81zm733.51 640.75c-60.39,0 -127.28,36.67 -153.17,118.64 -84.13,265.35 -220.04,353.82 -317.12,353.82 -36.7,0 -58.25,-19.42 -58.25,-53.95 0,-17.25 4.3,-38.83 10.78,-62.55l241.63 -698.98c8.63,-25.91 12.94,-49.63 12.94,-71.21 0,-94.92 -77.66,-144.53 -157.49,-144.53 -60.42,0 -122.97,28.03 -157.5,81.97 -45.3,-28.05 -129.44,-60.41 -239.46,-60.41 -142.39,0 -297.71,77.66 -355.96,243.79l-202.77 580.32c-12.95,38.83 -21.59,77.66 -21.59,116.49 0,179.08 144.55,325.77 334.38,325.77 101.41,0 204.97,-45.3 284.77,-116.5 69.05,99.25 222.21,116.5 286.93,116.5 179.05,0 418.54,-90.61 556.6,-440.1 30.22,-84.13 53.94,-138.07 53.94,-176.91 0,-73.33 -56.08,-112.16 -118.66,-112.16zm-711.92 -21.58l-103.56 321.43c-45.3,140.25 -127.27,172.61 -172.57,172.61 -47.47,0 -71.2,-30.22 -71.2,-79.83 0,-28.06 6.48,-53.95 12.95,-73.36l138.05 -433.63c41,-131.58 101.41,-148.85 135.91,-148.85 41,0 86.3,41 86.3,114.35 0,32.36 -8.63,73.34 -25.88,127.28z"/>
   <path class="fil1" d="M7032.69 19915.28c0,0 22.91,0 22.91,0 0,0 0,44.29 0,44.29 0,0 -22.91,0 -22.91,0 0,0 -481.22,0 -481.22,0 0,0 0,309.86 0,309.86 0,0 346.02,0 346.02,0 0,0 22.91,0 22.91,0 0,0 0,44.29 0,44.29 0,0 -22.91,0 -22.91,0 0,0 -346.02,0 -346.02,0 0,0 0,309.89 0,309.89 0,0 481.22,0 481.22,0 0,0 22.91,0 22.91,0 0,0 0,44.26 0,44.26 0,0 -22.91,0 -22.91,0 0,0 -504.12,0 -504.12,0 0,0 -22.91,0 -22.91,0 0,0 0,-22.14 0,-22.14 0,0 0,-332.01 0,-332.01 0,0 0,-44.29 0,-44.29 0,0 0,-332 0,-332 0,0 0,-22.15 0,-22.15 0,0 22.91,0 22.91,0 0,0 504.12,0 504.12,0zm139.76 252.33c0,0 -13.76,-30.98 -13.76,-30.98 0,0 49.28,0 49.28,0 0,0 5.74,13.28 5.74,13.28 0,0 186.74,437.16 186.74,437.16 0,0 183.31,-437.16 183.31,-437.16 0,0 6.88,-13.28 6.88,-13.28 0,0 49.27,0 49.27,0 0,0 -12.61,30.98 -12.61,30.98 0,0 -205.09,486.98 -205.09,486.98 0,0 -6.88,13.28 -6.88,13.28 0,0 -29.79,0 -29.79,0 0,0 -5.7,-13.28 -5.7,-13.28 0,0 -207.39,-486.98 -207.39,-486.98zm547.65 234.65c0,-148.32 114.59,-265.63 252.08,-265.63 84.77,0 160.4,44.29 206.21,112.9 0,0 0,-90.76 0,-90.76 0,0 0,-22.14 0,-22.14 0,0 45.84,0 45.84,0 0,0 0,22.14 0,22.14 0,0 0,243.49 0,243.49 0,0 0,243.47 0,243.47 0,0 0,22.14 0,22.14 0,0 -45.84,0 -45.84,0 0,0 0,-22.14 0,-22.14 0,0 0,-90.74 0,-90.74 -45.81,68.62 -121.44,112.88 -206.21,112.88 -137.49,0 -252.08,-117.31 -252.08,-265.61zm45.84 0c0,121.72 91.68,221.35 206.24,221.35 114.58,0 206.21,-99.63 206.21,-221.35 0,-121.74 -91.63,-221.34 -206.21,-221.34 -114.56,0 -206.24,99.6 -206.24,221.34zm1276.36 -172.65c-61.89,36.51 -120.32,75.24 -144.37,122.84 -56.13,112.88 4.59,273.35 199.36,272.26 88.21,0 146.64,-53.13 193.62,-110.66 -95.09,-94.08 -185.6,-198.11 -248.61,-284.44 0,0 0,0 0,0zm281.84 315.42c-54.99,66.4 -126.03,123.94 -226.85,123.94 -242.91,1.12 -308.19,-199.21 -240.61,-336.45 26.34,-52 91.65,-97.38 159.27,-138.33 -41.25,-60.87 -66.45,-110.69 -66.45,-137.24 0,0 0,-1.12 0,-1.12 2.27,-99.6 83.63,-139.43 147.79,-140.55 65.3,-1.09 152.37,44.29 152.37,140.55 1.15,46.5 -69.87,95.2 -162.67,147.2 -3.46,2.22 -6.9,3.34 -10.32,5.53 60.72,80.8 148.94,179.31 240.59,270.07 60.72,-83.02 106.56,-157.17 155.81,-158.29 0,0 22.93,-1.09 22.93,-1.09 0,0 0,45.38 0,45.38 0,0 -22.93,0 -22.93,0 -41.23,1.09 -73.33,77.46 -121.44,143.86 0,0 -1.14,1.12 -1.14,1.12 46.98,44.26 92.79,85.21 137.49,120.63 0,0 49.28,38.73 49.28,38.73 0,0 -72.22,0 -72.22,0 0,0 -6.85,-5.53 -6.85,-5.53 -43.55,-35.42 -89.36,-75.25 -134.05,-118.41zm-272.69 -371.86c4.58,-3.34 8.02,-5.56 12.61,-7.75 67.6,-38.75 140.93,-69.74 139.79,-109.59 0,-67.49 -61.87,-97.38 -106.56,-96.26 -43.55,1.09 -99.68,27.64 -101.97,97.38 0,23.24 20.63,65.31 56.13,116.22zm1555.9 -58.68c0,0 -45.84,0 -45.84,0 0,-87.42 -95.09,-154.92 -206.23,-154.92 -111.12,0 -206.22,67.5 -206.22,154.92 0,153.85 482.35,153.85 481.2,354.17 0,104.04 -120.29,199.21 -274.98,199.21 -156.96,0 -274.99,-94.07 -274.99,-199.21 0,0 45.84,0 45.84,0 0,87.43 106.56,154.95 229.15,154.95 120.29,0 229.14,-68.62 229.14,-154.95 0,-157.16 -480.05,-154.94 -481.2,-354.17 0,-107.35 108.83,-199.21 252.06,-199.21 143.22,0 252.07,91.86 252.07,199.21zm114.56 287.77c0,-148.32 114.59,-265.63 252.08,-265.63 84.77,0 160.4,44.29 206.21,112.9 0,0 0,-90.76 0,-90.76 0,0 0,-22.14 0,-22.14 0,0 45.84,0 45.84,0 0,0 0,22.14 0,22.14 0,0 0,243.49 0,243.49 0,0 0,243.47 0,243.47 0,0 0,22.14 0,22.14 0,0 -45.84,0 -45.84,0 0,0 0,-22.14 0,-22.14 0,0 0,-90.74 0,-90.74 -45.81,68.62 -121.44,112.88 -206.21,112.88 -137.49,0 -252.08,-117.31 -252.08,-265.61zm45.84 0c0,121.72 91.68,221.35 206.24,221.35 114.58,0 206.21,-99.63 206.21,-221.35 0,-121.74 -91.63,-221.34 -206.21,-221.34 -114.56,0 -206.24,99.6 -206.24,221.34zm595.78 0c0,-148.32 114.59,-265.63 252.08,-265.63 84.77,0 160.4,44.29 206.21,112.9 0,0 0,-334.25 0,-334.25 0,0 0,-22.14 0,-22.14 0,0 45.84,0 45.84,0 0,0 0,22.14 0,22.14 0,0 0,486.98 0,486.98 0,0 0,243.47 0,243.47 0,0 0,22.14 0,22.14 0,0 -45.84,0 -45.84,0 0,0 0,-22.14 0,-22.14 0,0 0,-90.74 0,-90.74 -45.81,68.62 -121.44,112.88 -206.21,112.88 -137.49,0 -252.08,-117.31 -252.08,-265.61zm45.84 0c0,121.72 91.68,221.35 206.24,221.35 114.58,0 206.21,-99.63 206.21,-221.35 0,-121.74 -91.63,-221.34 -206.21,-221.34 -114.56,0 -206.24,99.6 -206.24,221.34zm664.55 -355.27c0,0 -22.93,0 -22.93,0 0,0 0,-44.26 0,-44.26 0,0 22.93,0 22.93,0 0,0 1.12,0 1.12,0 0,0 22.94,0 22.94,0 0,0 0,44.26 0,44.26 0,0 -22.94,0 -22.94,0 0,0 -1.12,0 -1.12,0zm-22.93 111.78c0,0 0,-22.14 0,-22.14 0,0 45.82,0 45.82,0 0,0 0,22.14 0,22.14 0,0 0,486.96 0,486.96 0,0 0,22.14 0,22.14 0,0 -45.82,0 -45.82,0 0,0 0,-22.14 0,-22.14 0,0 0,-486.96 0,-486.96zm299.01 22.15c0,0 0,341.97 0,341.97 1.18,67.52 52.72,100.72 136.35,100.72 0,0 22.93,0 22.93,0 0,0 0,44.26 0,44.26 0,0 -22.93,0 -22.93,0 -120.29,0 -181.01,-53.13 -182.16,-144.98 0,0 0,-341.97 0,-341.97 0,0 -69.89,0 -69.89,0 0,0 -22.91,0 -22.91,0 0,0 0,-44.29 0,-44.29 0,0 22.91,0 22.91,0 0,0 69.89,0 69.89,0 0,0 0,-116.19 0,-116.19 0,0 0,-22.14 0,-22.14 0,0 45.81,0 45.81,0 0,0 0,22.14 0,22.14 0,0 0,116.19 0,116.19 0,0 136.35,0 136.35,0 0,0 22.93,0 22.93,0 0,0 0,44.29 0,44.29 0,0 -22.93,0 -22.93,0 0,0 -136.35,0 -136.35,0zm319.68 42.04c40.11,-52.01 101.97,-86.33 171.86,-86.33 119.18,0 217.68,99.6 217.68,224.69 0,0 0,284.41 0,284.41 0,0 1.17,23.24 1.17,23.24 0,0 -44.69,0 -44.69,0 0,0 -1.14,-22.12 -1.14,-22.12 0,0 -1.15,-285.53 -1.15,-285.53 0,-98.51 -75.63,-180.4 -171.87,-180.4 -96.24,0 -171.86,81.89 -171.86,180.4 0,0 0,22.11 0,22.11 0,0 0,262.3 0,262.3 0,0 0,22.14 0,22.14 0,0 -45.81,0 -45.81,0 0,0 0,-22.14 0,-22.14 0,0 0,-262.3 0,-262.3 0,0 0,-22.11 0,-22.11 0,0 0,-375.2 0,-375.2 0,0 0,-22.14 0,-22.14 0,0 45.81,0 45.81,0 0,0 0,22.14 0,22.14 0,0 0,236.84 0,236.84z"/>
   <polygon class="fil2" points="1600.06,20393.45 6056.21,20393.45 6056.21,20654.9 1600.06,20654.9 "/>
   <polygon class="fil2" points="13507.62,20393.45 17963.78,20393.45 17963.78,20654.9 13507.62,20654.9 "/>
  </g>
 </g>
</svg>
